<mxfile host="app.diagrams.net" agent="Mozilla/5.0 (Windows NT 10.0; Win64; x64) AppleWebKit/537.36 (KHTML, like Gecko) Chrome/132.0.0.0 Safari/537.36" version="26.0.10">
  <diagram name="Page-1" id="7AiujLia3BrwarBfl7hj">
    <mxGraphModel dx="2924" dy="2204" grid="1" gridSize="10" guides="1" tooltips="1" connect="1" arrows="1" fold="1" page="1" pageScale="1" pageWidth="850" pageHeight="1100" math="0" shadow="0">
      <root>
        <mxCell id="0" />
        <mxCell id="1" parent="0" />
        <mxCell id="kjhKShKTyzqzqqCBpNzS-1" value="FWMain" style="swimlane;fontStyle=1;align=center;verticalAlign=top;childLayout=stackLayout;horizontal=1;startSize=26;horizontalStack=0;resizeParent=1;resizeParentMax=0;resizeLast=0;collapsible=1;marginBottom=0;whiteSpace=wrap;html=1;" vertex="1" parent="1">
          <mxGeometry x="710" y="50" width="160" height="60" as="geometry" />
        </mxCell>
        <mxCell id="kjhKShKTyzqzqqCBpNzS-3" value="" style="line;strokeWidth=1;fillColor=none;align=left;verticalAlign=middle;spacingTop=-1;spacingLeft=3;spacingRight=3;rotatable=0;labelPosition=right;points=[];portConstraint=eastwest;strokeColor=inherit;" vertex="1" parent="kjhKShKTyzqzqqCBpNzS-1">
          <mxGeometry y="26" width="160" height="8" as="geometry" />
        </mxCell>
        <mxCell id="kjhKShKTyzqzqqCBpNzS-4" value="+ main(String[] args): void" style="text;strokeColor=none;fillColor=none;align=left;verticalAlign=top;spacingLeft=4;spacingRight=4;overflow=hidden;rotatable=0;points=[[0,0.5],[1,0.5]];portConstraint=eastwest;whiteSpace=wrap;html=1;" vertex="1" parent="kjhKShKTyzqzqqCBpNzS-1">
          <mxGeometry y="34" width="160" height="26" as="geometry" />
        </mxCell>
        <mxCell id="kjhKShKTyzqzqqCBpNzS-13" value="java.awt.event.ActionListener" style="swimlane;fontStyle=1;align=center;verticalAlign=top;childLayout=stackLayout;horizontal=1;startSize=26;horizontalStack=0;resizeParent=1;resizeParentMax=0;resizeLast=0;collapsible=1;marginBottom=0;whiteSpace=wrap;html=1;" vertex="1" parent="1">
          <mxGeometry x="435" y="30" width="180" height="34" as="geometry" />
        </mxCell>
        <mxCell id="kjhKShKTyzqzqqCBpNzS-15" value="" style="line;strokeWidth=1;fillColor=none;align=left;verticalAlign=middle;spacingTop=-1;spacingLeft=3;spacingRight=3;rotatable=0;labelPosition=right;points=[];portConstraint=eastwest;strokeColor=inherit;" vertex="1" parent="kjhKShKTyzqzqqCBpNzS-13">
          <mxGeometry y="26" width="180" height="8" as="geometry" />
        </mxCell>
        <mxCell id="kjhKShKTyzqzqqCBpNzS-17" value="FWFrame" style="swimlane;fontStyle=1;align=center;verticalAlign=top;childLayout=stackLayout;horizontal=1;startSize=26;horizontalStack=0;resizeParent=1;resizeParentMax=0;resizeLast=0;collapsible=1;marginBottom=0;whiteSpace=wrap;html=1;" vertex="1" parent="1">
          <mxGeometry x="210" y="160" width="180" height="144" as="geometry" />
        </mxCell>
        <mxCell id="kjhKShKTyzqzqqCBpNzS-18" value="- KIT : Toolkit&amp;nbsp;&lt;div&gt;- SCREEN_SIZE : Dimension&lt;/div&gt;&lt;div&gt;- SCREEN_WIDTH : int&lt;/div&gt;&lt;div&gt;- SCREEN_HEIGHT : int&lt;/div&gt;&lt;div&gt;- SCALE : double&lt;/div&gt;" style="text;strokeColor=none;fillColor=none;align=left;verticalAlign=top;spacingLeft=4;spacingRight=4;overflow=hidden;rotatable=0;points=[[0,0.5],[1,0.5]];portConstraint=eastwest;whiteSpace=wrap;html=1;" vertex="1" parent="kjhKShKTyzqzqqCBpNzS-17">
          <mxGeometry y="26" width="180" height="84" as="geometry" />
        </mxCell>
        <mxCell id="kjhKShKTyzqzqqCBpNzS-19" value="" style="line;strokeWidth=1;fillColor=none;align=left;verticalAlign=middle;spacingTop=-1;spacingLeft=3;spacingRight=3;rotatable=0;labelPosition=right;points=[];portConstraint=eastwest;strokeColor=inherit;" vertex="1" parent="kjhKShKTyzqzqqCBpNzS-17">
          <mxGeometry y="110" width="180" height="8" as="geometry" />
        </mxCell>
        <mxCell id="kjhKShKTyzqzqqCBpNzS-20" value="+ frameOutline() : JFrame" style="text;strokeColor=none;fillColor=none;align=left;verticalAlign=top;spacingLeft=4;spacingRight=4;overflow=hidden;rotatable=0;points=[[0,0.5],[1,0.5]];portConstraint=eastwest;whiteSpace=wrap;html=1;" vertex="1" parent="kjhKShKTyzqzqqCBpNzS-17">
          <mxGeometry y="118" width="180" height="26" as="geometry" />
        </mxCell>
        <mxCell id="kjhKShKTyzqzqqCBpNzS-25" value="FWGUI" style="swimlane;fontStyle=1;align=center;verticalAlign=top;childLayout=stackLayout;horizontal=1;startSize=26;horizontalStack=0;resizeParent=1;resizeParentMax=0;resizeLast=0;collapsible=1;marginBottom=0;whiteSpace=wrap;html=1;" vertex="1" parent="1">
          <mxGeometry x="420" y="140" width="210" height="240" as="geometry" />
        </mxCell>
        <mxCell id="kjhKShKTyzqzqqCBpNzS-26" value="- myFrame : JFrame&lt;div&gt;- myMenuBar : JMenuBar&lt;/div&gt;&lt;div&gt;- runningTime : int&lt;/div&gt;&lt;div&gt;- myTimer : Timer&lt;/div&gt;&lt;div&gt;- myTimeLabel : JLabel&lt;/div&gt;&lt;div&gt;- myStartButton : JMenuItem&lt;/div&gt;&lt;div&gt;- myStopButton : JMenuItem&lt;/div&gt;&lt;div&gt;- FWEventTable : MyEventTable&lt;/div&gt;" style="text;strokeColor=none;fillColor=none;align=left;verticalAlign=top;spacingLeft=4;spacingRight=4;overflow=hidden;rotatable=0;points=[[0,0.5],[1,0.5]];portConstraint=eastwest;whiteSpace=wrap;html=1;" vertex="1" parent="kjhKShKTyzqzqqCBpNzS-25">
          <mxGeometry y="26" width="210" height="124" as="geometry" />
        </mxCell>
        <mxCell id="kjhKShKTyzqzqqCBpNzS-27" value="" style="line;strokeWidth=1;fillColor=none;align=left;verticalAlign=middle;spacingTop=-1;spacingLeft=3;spacingRight=3;rotatable=0;labelPosition=right;points=[];portConstraint=eastwest;strokeColor=inherit;" vertex="1" parent="kjhKShKTyzqzqqCBpNzS-25">
          <mxGeometry y="150" width="210" height="8" as="geometry" />
        </mxCell>
        <mxCell id="kjhKShKTyzqzqqCBpNzS-28" value="+ FWGUI() : FWGUI&lt;div&gt;- timeKeeper() : void&lt;/div&gt;&lt;div&gt;- createMenuBar() : void&lt;/div&gt;&lt;div&gt;+ actionPerformed(ActionEvent): void&lt;/div&gt;&lt;div&gt;- timerLabelExtended() : void&lt;/div&gt;" style="text;strokeColor=none;fillColor=none;align=left;verticalAlign=top;spacingLeft=4;spacingRight=4;overflow=hidden;rotatable=0;points=[[0,0.5],[1,0.5]];portConstraint=eastwest;whiteSpace=wrap;html=1;" vertex="1" parent="kjhKShKTyzqzqqCBpNzS-25">
          <mxGeometry y="158" width="210" height="82" as="geometry" />
        </mxCell>
        <mxCell id="kjhKShKTyzqzqqCBpNzS-29" value="javax.swing.JFrame" style="swimlane;fontStyle=1;align=center;verticalAlign=top;childLayout=stackLayout;horizontal=1;startSize=26;horizontalStack=0;resizeParent=1;resizeParentMax=0;resizeLast=0;collapsible=1;marginBottom=0;whiteSpace=wrap;html=1;" vertex="1" parent="1">
          <mxGeometry x="220" y="50" width="160" height="34" as="geometry" />
        </mxCell>
        <mxCell id="kjhKShKTyzqzqqCBpNzS-31" value="" style="line;strokeWidth=1;fillColor=none;align=left;verticalAlign=middle;spacingTop=-1;spacingLeft=3;spacingRight=3;rotatable=0;labelPosition=right;points=[];portConstraint=eastwest;strokeColor=inherit;" vertex="1" parent="kjhKShKTyzqzqqCBpNzS-29">
          <mxGeometry y="26" width="160" height="8" as="geometry" />
        </mxCell>
        <mxCell id="kjhKShKTyzqzqqCBpNzS-34" value="" style="endArrow=open;endFill=1;endSize=12;html=1;rounded=0;exitX=0.5;exitY=0;exitDx=0;exitDy=0;entryX=0.5;entryY=1.064;entryDx=0;entryDy=0;entryPerimeter=0;" edge="1" parent="1">
          <mxGeometry width="160" relative="1" as="geometry">
            <mxPoint x="299.5" y="164.34000000000003" as="sourcePoint" />
            <mxPoint x="299.5" y="84.00399999999999" as="targetPoint" />
          </mxGeometry>
        </mxCell>
        <mxCell id="kjhKShKTyzqzqqCBpNzS-40" value="" style="endArrow=open;endFill=1;endSize=12;html=1;rounded=0;exitX=0.5;exitY=0;exitDx=0;exitDy=0;entryX=0.5;entryY=1;entryDx=0;entryDy=0;" edge="1" parent="1" source="kjhKShKTyzqzqqCBpNzS-70" target="kjhKShKTyzqzqqCBpNzS-67">
          <mxGeometry width="160" relative="1" as="geometry">
            <mxPoint x="100" y="166" as="sourcePoint" />
            <mxPoint x="100" y="80.00000000000023" as="targetPoint" />
          </mxGeometry>
        </mxCell>
        <mxCell id="kjhKShKTyzqzqqCBpNzS-41" value="FileEvent" style="swimlane;fontStyle=1;align=center;verticalAlign=top;childLayout=stackLayout;horizontal=1;startSize=26;horizontalStack=0;resizeParent=1;resizeParentMax=0;resizeLast=0;collapsible=1;marginBottom=0;whiteSpace=wrap;html=1;" vertex="1" parent="1">
          <mxGeometry x="250" y="600" width="470" height="220" as="geometry" />
        </mxCell>
        <mxCell id="kjhKShKTyzqzqqCBpNzS-42" value="- myFilePath : String&lt;div&gt;- myFileName : String&lt;br&gt;&lt;div&gt;- myEventType : EventType&lt;/div&gt;&lt;div&gt;- myEventTime : LocalDateTime&lt;/div&gt;&lt;div&gt;- myExtension : String&lt;/div&gt;&lt;/div&gt;" style="text;strokeColor=none;fillColor=none;align=left;verticalAlign=top;spacingLeft=4;spacingRight=4;overflow=hidden;rotatable=0;points=[[0,0.5],[1,0.5]];portConstraint=eastwest;whiteSpace=wrap;html=1;" vertex="1" parent="kjhKShKTyzqzqqCBpNzS-41">
          <mxGeometry y="26" width="470" height="84" as="geometry" />
        </mxCell>
        <mxCell id="kjhKShKTyzqzqqCBpNzS-43" value="" style="line;strokeWidth=1;fillColor=none;align=left;verticalAlign=middle;spacingTop=-1;spacingLeft=3;spacingRight=3;rotatable=0;labelPosition=right;points=[];portConstraint=eastwest;strokeColor=inherit;" vertex="1" parent="kjhKShKTyzqzqqCBpNzS-41">
          <mxGeometry y="110" width="470" height="8" as="geometry" />
        </mxCell>
        <mxCell id="kjhKShKTyzqzqqCBpNzS-44" value="+ FileEvent(String thePath, EventType theEventType, Time theEventTime) : FileEvent&lt;div&gt;+ getFileName() : String&lt;/div&gt;&lt;div&gt;+ getFilePath() : String&lt;/div&gt;&lt;div&gt;+ getEventType() : EventType&lt;/div&gt;&lt;div&gt;+ getEventTime() : LocalDateTime&lt;/div&gt;&lt;div&gt;+ getExtension() : String&lt;/div&gt;" style="text;strokeColor=none;fillColor=none;align=left;verticalAlign=top;spacingLeft=4;spacingRight=4;overflow=hidden;rotatable=0;points=[[0,0.5],[1,0.5]];portConstraint=eastwest;whiteSpace=wrap;html=1;" vertex="1" parent="kjhKShKTyzqzqqCBpNzS-41">
          <mxGeometry y="118" width="470" height="102" as="geometry" />
        </mxCell>
        <mxCell id="kjhKShKTyzqzqqCBpNzS-49" value="&lt;b&gt;&amp;lt;&amp;lt;Enumeration&amp;gt;&amp;gt;&lt;/b&gt;&lt;div&gt;&lt;b&gt;EventType&lt;/b&gt;&lt;/div&gt;" style="swimlane;fontStyle=0;childLayout=stackLayout;horizontal=1;startSize=40;fillColor=none;horizontalStack=0;resizeParent=1;resizeParentMax=0;resizeLast=0;collapsible=1;marginBottom=0;whiteSpace=wrap;html=1;" vertex="1" parent="1">
          <mxGeometry x="570" y="429" width="140" height="150" as="geometry" />
        </mxCell>
        <mxCell id="kjhKShKTyzqzqqCBpNzS-50" value="FileCreated&lt;div&gt;FileEdited&lt;/div&gt;&lt;div&gt;FileDeleted&lt;/div&gt;&lt;div&gt;FileRenamed&lt;/div&gt;&lt;div&gt;DirectoryCreated&lt;/div&gt;&lt;div&gt;DirectoryRenamed&lt;/div&gt;&lt;div&gt;&lt;span style=&quot;background-color: transparent; color: light-dark(rgb(0, 0, 0), rgb(255, 255, 255));&quot;&gt;DirectoryDeleted&lt;/span&gt;&lt;/div&gt;" style="text;strokeColor=none;fillColor=none;align=left;verticalAlign=top;spacingLeft=4;spacingRight=4;overflow=hidden;rotatable=0;points=[[0,0.5],[1,0.5]];portConstraint=eastwest;whiteSpace=wrap;html=1;" vertex="1" parent="kjhKShKTyzqzqqCBpNzS-49">
          <mxGeometry y="40" width="140" height="110" as="geometry" />
        </mxCell>
        <mxCell id="kjhKShKTyzqzqqCBpNzS-56" value="" style="html=1;verticalAlign=bottom;endArrow=none;curved=0;rounded=0;strokeColor=default;strokeWidth=1;startFill=0;exitX=0.5;exitY=0;exitDx=0;exitDy=0;entryX=-0.015;entryY=0.311;entryDx=0;entryDy=0;entryPerimeter=0;" edge="1" parent="1" source="kjhKShKTyzqzqqCBpNzS-41" target="kjhKShKTyzqzqqCBpNzS-50">
          <mxGeometry width="80" relative="1" as="geometry">
            <mxPoint x="545" y="480" as="sourcePoint" />
            <mxPoint x="625" y="480" as="targetPoint" />
          </mxGeometry>
        </mxCell>
        <mxCell id="kjhKShKTyzqzqqCBpNzS-58" value="view" style="shape=umlFrame;whiteSpace=wrap;html=1;pointerEvents=0;" vertex="1" parent="1">
          <mxGeometry x="-360" y="-10" width="1010" height="410" as="geometry" />
        </mxCell>
        <mxCell id="kjhKShKTyzqzqqCBpNzS-59" value="controller" style="shape=umlFrame;whiteSpace=wrap;html=1;pointerEvents=0;" vertex="1" parent="1">
          <mxGeometry x="680" y="10" width="300" height="390" as="geometry" />
        </mxCell>
        <mxCell id="kjhKShKTyzqzqqCBpNzS-61" value="model" style="shape=umlFrame;whiteSpace=wrap;html=1;pointerEvents=0;" vertex="1" parent="1">
          <mxGeometry x="-350" y="410" width="1090" height="470" as="geometry" />
        </mxCell>
        <mxCell id="kjhKShKTyzqzqqCBpNzS-62" value="FWEventTable" style="swimlane;fontStyle=1;align=center;verticalAlign=top;childLayout=stackLayout;horizontal=1;startSize=26;horizontalStack=0;resizeParent=1;resizeParentMax=0;resizeLast=0;collapsible=1;marginBottom=0;whiteSpace=wrap;html=1;" vertex="1" parent="1">
          <mxGeometry x="-350" y="160" width="230" height="180" as="geometry" />
        </mxCell>
        <mxCell id="kjhKShKTyzqzqqCBpNzS-63" value="- myEventTable : JTable&lt;div&gt;- myTableModel : DefaultTableModel&lt;/div&gt;&lt;div&gt;- myColumnNames : String[]&lt;/div&gt;&lt;div&gt;- myData : ArrayList&amp;lt;FileEvent&amp;gt;&lt;/div&gt;" style="text;strokeColor=none;fillColor=none;align=left;verticalAlign=top;spacingLeft=4;spacingRight=4;overflow=hidden;rotatable=0;points=[[0,0.5],[1,0.5]];portConstraint=eastwest;whiteSpace=wrap;html=1;" vertex="1" parent="kjhKShKTyzqzqqCBpNzS-62">
          <mxGeometry y="26" width="230" height="64" as="geometry" />
        </mxCell>
        <mxCell id="kjhKShKTyzqzqqCBpNzS-64" value="" style="line;strokeWidth=1;fillColor=none;align=left;verticalAlign=middle;spacingTop=-1;spacingLeft=3;spacingRight=3;rotatable=0;labelPosition=right;points=[];portConstraint=eastwest;strokeColor=inherit;" vertex="1" parent="kjhKShKTyzqzqqCBpNzS-62">
          <mxGeometry y="90" width="230" height="8" as="geometry" />
        </mxCell>
        <mxCell id="kjhKShKTyzqzqqCBpNzS-65" value="+ FWEventTable() : FWEventTable&lt;div&gt;+ addEvent() : void&lt;/div&gt;&lt;div&gt;+ getData : ArrayList&amp;lt;FileEvent&amp;gt;&lt;/div&gt;&lt;div&gt;+ updateTable() : void&lt;/div&gt;&lt;div&gt;+ clearTable() : void&lt;/div&gt;" style="text;strokeColor=none;fillColor=none;align=left;verticalAlign=top;spacingLeft=4;spacingRight=4;overflow=hidden;rotatable=0;points=[[0,0.5],[1,0.5]];portConstraint=eastwest;whiteSpace=wrap;html=1;" vertex="1" parent="kjhKShKTyzqzqqCBpNzS-62">
          <mxGeometry y="98" width="230" height="82" as="geometry" />
        </mxCell>
        <mxCell id="kjhKShKTyzqzqqCBpNzS-67" value="javax.swing.JPanel" style="swimlane;fontStyle=1;align=center;verticalAlign=top;childLayout=stackLayout;horizontal=1;startSize=26;horizontalStack=0;resizeParent=1;resizeParentMax=0;resizeLast=0;collapsible=1;marginBottom=0;whiteSpace=wrap;html=1;" vertex="1" parent="1">
          <mxGeometry x="-180" y="77" width="160" height="34" as="geometry" />
        </mxCell>
        <mxCell id="kjhKShKTyzqzqqCBpNzS-68" value="" style="line;strokeWidth=1;fillColor=none;align=left;verticalAlign=middle;spacingTop=-1;spacingLeft=3;spacingRight=3;rotatable=0;labelPosition=right;points=[];portConstraint=eastwest;strokeColor=inherit;" vertex="1" parent="kjhKShKTyzqzqqCBpNzS-67">
          <mxGeometry y="26" width="160" height="8" as="geometry" />
        </mxCell>
        <mxCell id="kjhKShKTyzqzqqCBpNzS-69" value="" style="endArrow=open;endFill=1;endSize=12;html=1;rounded=0;exitX=0.5;exitY=0;exitDx=0;exitDy=0;entryX=0.5;entryY=1;entryDx=0;entryDy=0;" edge="1" parent="1" source="kjhKShKTyzqzqqCBpNzS-62" target="kjhKShKTyzqzqqCBpNzS-67">
          <mxGeometry width="160" relative="1" as="geometry">
            <mxPoint x="-110.34000000000003" y="152.34000000000003" as="sourcePoint" />
            <mxPoint x="-110.34000000000003" y="72.00400000000002" as="targetPoint" />
          </mxGeometry>
        </mxCell>
        <mxCell id="kjhKShKTyzqzqqCBpNzS-70" value="FWPanel" style="swimlane;fontStyle=1;align=center;verticalAlign=top;childLayout=stackLayout;horizontal=1;startSize=26;horizontalStack=0;resizeParent=1;resizeParentMax=0;resizeLast=0;collapsible=1;marginBottom=0;whiteSpace=wrap;html=1;" vertex="1" parent="1">
          <mxGeometry x="-110" y="150" width="290" height="210" as="geometry" />
        </mxCell>
        <mxCell id="kjhKShKTyzqzqqCBpNzS-71" value="- JComboBox&amp;lt;String&amp;gt; : extensionDropdown&lt;div&gt;- JTextField : directoryField&lt;/div&gt;&lt;div&gt;- JButton startButton, stopButton&lt;/div&gt;&lt;div&gt;- JComboBox&amp;lt;String&amp;gt; : queryExtensionDropdown&lt;/div&gt;&lt;div&gt;- JTextField : databaseField&lt;/div&gt;&lt;div&gt;- JButton :&amp;nbsp; writeDbButton, queryButton, clearButton&lt;/div&gt;&lt;div&gt;- JTextArea : eventLog&lt;/div&gt;&lt;div&gt;- JLabel : myTimeLabel&lt;/div&gt;&lt;div&gt;&lt;br&gt;&lt;/div&gt;" style="text;strokeColor=none;fillColor=none;align=left;verticalAlign=top;spacingLeft=4;spacingRight=4;overflow=hidden;rotatable=0;points=[[0,0.5],[1,0.5]];portConstraint=eastwest;whiteSpace=wrap;html=1;" vertex="1" parent="kjhKShKTyzqzqqCBpNzS-70">
          <mxGeometry y="26" width="290" height="124" as="geometry" />
        </mxCell>
        <mxCell id="kjhKShKTyzqzqqCBpNzS-72" value="" style="line;strokeWidth=1;fillColor=none;align=left;verticalAlign=middle;spacingTop=-1;spacingLeft=3;spacingRight=3;rotatable=0;labelPosition=right;points=[];portConstraint=eastwest;strokeColor=inherit;" vertex="1" parent="kjhKShKTyzqzqqCBpNzS-70">
          <mxGeometry y="150" width="290" height="8" as="geometry" />
        </mxCell>
        <mxCell id="kjhKShKTyzqzqqCBpNzS-73" value="+ FWPanel() : FWPanel&lt;div&gt;- createModernButton(String) : JButton&lt;/div&gt;" style="text;strokeColor=none;fillColor=none;align=left;verticalAlign=top;spacingLeft=4;spacingRight=4;overflow=hidden;rotatable=0;points=[[0,0.5],[1,0.5]];portConstraint=eastwest;whiteSpace=wrap;html=1;" vertex="1" parent="kjhKShKTyzqzqqCBpNzS-70">
          <mxGeometry y="158" width="290" height="52" as="geometry" />
        </mxCell>
        <mxCell id="kjhKShKTyzqzqqCBpNzS-75" value="Main" style="swimlane;fontStyle=1;align=center;verticalAlign=top;childLayout=stackLayout;horizontal=1;startSize=26;horizontalStack=0;resizeParent=1;resizeParentMax=0;resizeLast=0;collapsible=1;marginBottom=0;whiteSpace=wrap;html=1;" vertex="1" parent="1">
          <mxGeometry x="-320" y="464" width="160" height="80" as="geometry" />
        </mxCell>
        <mxCell id="kjhKShKTyzqzqqCBpNzS-77" value="" style="line;strokeWidth=1;fillColor=none;align=left;verticalAlign=middle;spacingTop=-1;spacingLeft=3;spacingRight=3;rotatable=0;labelPosition=right;points=[];portConstraint=eastwest;strokeColor=inherit;" vertex="1" parent="kjhKShKTyzqzqqCBpNzS-75">
          <mxGeometry y="26" width="160" height="8" as="geometry" />
        </mxCell>
        <mxCell id="kjhKShKTyzqzqqCBpNzS-78" value="- setLookAndFeel() : void&lt;div&gt;+ main(String[]) : void&lt;/div&gt;" style="text;strokeColor=none;fillColor=none;align=left;verticalAlign=top;spacingLeft=4;spacingRight=4;overflow=hidden;rotatable=0;points=[[0,0.5],[1,0.5]];portConstraint=eastwest;whiteSpace=wrap;html=1;" vertex="1" parent="kjhKShKTyzqzqqCBpNzS-75">
          <mxGeometry y="34" width="160" height="46" as="geometry" />
        </mxCell>
        <mxCell id="kjhKShKTyzqzqqCBpNzS-79" value="FWService" style="swimlane;fontStyle=1;align=center;verticalAlign=top;childLayout=stackLayout;horizontal=1;startSize=26;horizontalStack=0;resizeParent=1;resizeParentMax=0;resizeLast=0;collapsible=1;marginBottom=0;whiteSpace=wrap;html=1;" vertex="1" parent="1">
          <mxGeometry x="-340" y="570" width="220" height="158" as="geometry" />
        </mxCell>
        <mxCell id="kjhKShKTyzqzqqCBpNzS-80" value="- myWatcher : FileSystemWatcher&lt;div&gt;- myFileTypes : List&amp;lt;String&amp;gt;&lt;/div&gt;" style="text;strokeColor=none;fillColor=none;align=left;verticalAlign=top;spacingLeft=4;spacingRight=4;overflow=hidden;rotatable=0;points=[[0,0.5],[1,0.5]];portConstraint=eastwest;whiteSpace=wrap;html=1;" vertex="1" parent="kjhKShKTyzqzqqCBpNzS-79">
          <mxGeometry y="26" width="220" height="34" as="geometry" />
        </mxCell>
        <mxCell id="kjhKShKTyzqzqqCBpNzS-81" value="" style="line;strokeWidth=1;fillColor=none;align=left;verticalAlign=middle;spacingTop=-1;spacingLeft=3;spacingRight=3;rotatable=0;labelPosition=right;points=[];portConstraint=eastwest;strokeColor=inherit;" vertex="1" parent="kjhKShKTyzqzqqCBpNzS-79">
          <mxGeometry y="60" width="220" height="8" as="geometry" />
        </mxCell>
        <mxCell id="kjhKShKTyzqzqqCBpNzS-82" value="+ startWatching() : void&lt;div&gt;+ stopWatching() : void&lt;/div&gt;&lt;div&gt;+ onFileChange(String, String) : void&lt;/div&gt;" style="text;strokeColor=none;fillColor=none;align=left;verticalAlign=top;spacingLeft=4;spacingRight=4;overflow=hidden;rotatable=0;points=[[0,0.5],[1,0.5]];portConstraint=eastwest;whiteSpace=wrap;html=1;" vertex="1" parent="kjhKShKTyzqzqqCBpNzS-79">
          <mxGeometry y="68" width="220" height="90" as="geometry" />
        </mxCell>
        <mxCell id="kjhKShKTyzqzqqCBpNzS-83" value="FWDatabase" style="swimlane;fontStyle=1;align=center;verticalAlign=top;childLayout=stackLayout;horizontal=1;startSize=26;horizontalStack=0;resizeParent=1;resizeParentMax=0;resizeLast=0;collapsible=1;marginBottom=0;whiteSpace=wrap;html=1;" vertex="1" parent="1">
          <mxGeometry x="-80" y="544" width="250" height="150" as="geometry" />
        </mxCell>
        <mxCell id="kjhKShKTyzqzqqCBpNzS-84" value="- myConnection : SQLiteConncection" style="text;strokeColor=none;fillColor=none;align=left;verticalAlign=top;spacingLeft=4;spacingRight=4;overflow=hidden;rotatable=0;points=[[0,0.5],[1,0.5]];portConstraint=eastwest;whiteSpace=wrap;html=1;" vertex="1" parent="kjhKShKTyzqzqqCBpNzS-83">
          <mxGeometry y="26" width="250" height="26" as="geometry" />
        </mxCell>
        <mxCell id="kjhKShKTyzqzqqCBpNzS-85" value="" style="line;strokeWidth=1;fillColor=none;align=left;verticalAlign=middle;spacingTop=-1;spacingLeft=3;spacingRight=3;rotatable=0;labelPosition=right;points=[];portConstraint=eastwest;strokeColor=inherit;" vertex="1" parent="kjhKShKTyzqzqqCBpNzS-83">
          <mxGeometry y="52" width="250" height="8" as="geometry" />
        </mxCell>
        <mxCell id="kjhKShKTyzqzqqCBpNzS-86" value="+ saveFile(String, String, String) : void&lt;div&gt;+ queryForExtensions(String) : void&lt;/div&gt;&lt;div&gt;+ queryEventsByDate(String) : List&amp;lt;String&amp;gt;&lt;/div&gt;&lt;div&gt;+ queryEventsByType(String) : List&amp;lt;String&amp;gt;&lt;/div&gt;&lt;div&gt;- emptyDatabase() : void&lt;/div&gt;" style="text;strokeColor=none;fillColor=none;align=left;verticalAlign=top;spacingLeft=4;spacingRight=4;overflow=hidden;rotatable=0;points=[[0,0.5],[1,0.5]];portConstraint=eastwest;whiteSpace=wrap;html=1;" vertex="1" parent="kjhKShKTyzqzqqCBpNzS-83">
          <mxGeometry y="60" width="250" height="90" as="geometry" />
        </mxCell>
        <mxCell id="kjhKShKTyzqzqqCBpNzS-87" value="" style="endArrow=block;endFill=0;endSize=12;html=1;rounded=0;entryX=0.5;entryY=1;entryDx=0;entryDy=0;exitX=0.476;exitY=0;exitDx=0;exitDy=0;exitPerimeter=0;" edge="1" parent="1" source="kjhKShKTyzqzqqCBpNzS-25" target="kjhKShKTyzqzqqCBpNzS-13">
          <mxGeometry width="160" relative="1" as="geometry">
            <mxPoint x="130" y="370" as="sourcePoint" />
            <mxPoint x="520" y="70" as="targetPoint" />
          </mxGeometry>
        </mxCell>
        <mxCell id="kjhKShKTyzqzqqCBpNzS-88" value="" style="endArrow=open;endFill=1;endSize=12;html=1;rounded=0;entryX=0.5;entryY=0;entryDx=0;entryDy=0;" edge="1" parent="1" target="kjhKShKTyzqzqqCBpNzS-25">
          <mxGeometry width="160" relative="1" as="geometry">
            <mxPoint x="710" y="110" as="sourcePoint" />
            <mxPoint x="770" y="-30.336000000000013" as="targetPoint" />
          </mxGeometry>
        </mxCell>
      </root>
    </mxGraphModel>
  </diagram>
</mxfile>
